<svg width="50" height="50" viewBox="0 0 50 50" fill="none" xmlns="http://www.w3.org/2000/svg">
<g clip-path="url(#clip0_149_1857)">
<path d="M39.9698 37.7188C42.0727 41.0297 43.0637 42.7875 43.0637 44.6211C43.0637 48.2422 40.3742 49.998 36.7511 49.998C35.154 49.998 34.1231 49.9959 31.5176 48.6404C31.5176 48.6404 29.8294 47.0956 25.8786 47.2542C21.8911 47.0966 20.2018 48.6599 20.2018 48.6599C17.5963 50.0143 16.6022 50 15.0072 50C11.3841 50 8.69258 48.2463 8.69258 44.6232C8.69258 42.7896 9.68667 41.0338 11.7885 37.7209C11.7885 37.7209 15.7617 31.1227 19.2047 28.0186C21.6924 25.7786 25.3197 25.7868 25.3197 25.7868H26.4386C26.4386 25.7868 30.2246 25.7765 32.5567 28.0186C35.8932 31.2353 39.9698 37.7199 39.9698 37.7188ZM17.0271 21.3743C20.8151 21.3743 23.8854 16.5892 23.8854 10.6872C23.8854 4.78511 20.8151 0 17.0271 0C13.2392 0 10.1689 4.78511 10.1689 10.6872C10.1689 16.5892 13.2392 21.3743 17.0271 21.3743ZM10.4545 31.7246C13.2463 30.4357 13.8831 25.8656 11.8755 21.5166C9.86788 17.1676 5.97754 14.686 3.18572 15.9739C0.393889 17.2618 -0.241873 21.833 1.76472 26.1819C3.77234 30.5309 7.66267 33.0115 10.4545 31.7246ZM32.9724 21.3743C36.7603 21.3743 39.8316 16.5892 39.8316 10.6872C39.8316 4.78511 36.7603 0 32.9724 0C29.1844 0 26.1141 4.78511 26.1141 10.6872C26.1141 16.5892 29.1844 21.3743 32.9724 21.3743ZM46.8148 15.9729C44.0219 14.684 40.1326 17.1656 38.125 21.5156C36.1174 25.8656 36.7542 30.4357 39.547 31.7246C42.3399 33.0126 46.2292 30.5309 48.2368 26.1819C50.2444 21.833 49.6076 17.2618 46.8148 15.9729Z" fill="#030104"/>
</g>
<defs>
<clipPath id="clip0_149_1857">
<rect width="50" height="50" fill="white"/>
</clipPath>
</defs>
</svg>
